IKResults
version=1
nRows=5
nColumns=40
inDegrees=yes

Units are S.I. units (second, meters, Newtons, ...)
Angles are in degrees.

endheader
time	pelvis_tilt	pelvis_list	pelvis_rotation	pelvis_tx	pelvis_ty	pelvis_tz	hip_flexion_r	hip_adduction_r	hip_rotation_r	knee_angle_r	knee_angle_r_beta	ankle_angle_r	subtalar_angle_r	mtp_angle_r	hip_flexion_l	hip_adduction_l	hip_rotation_l	knee_angle_l	knee_angle_l_beta	ankle_angle_l	subtalar_angle_l	mtp_angle_l	lumbar_extension	lumbar_bending	lumbar_rotation	arm_flex_r	arm_add_r	arm_rot_r	elbow_flex_r	pro_sup_r	wrist_flex_r	wrist_dev_r	arm_flex_l	arm_add_l	arm_rot_l	elbow_flex_l	pro_sup_l	wrist_flex_l	wrist_dev_l
      0.00000000	     16.93162911	     -4.37283840	     -7.32966250	     -0.70190909	      0.95652657	      1.42387707	     -0.10849502	      1.66841951	     -3.05485897	    -44.49161197	     -0.77652512	      5.92441713	    -14.59403576	     14.54580345	    -21.09567730	      0.19233180	     19.71290713	    -10.20970496	     -0.17819297	      9.60340493	     -2.15775942	     -5.39521240	    -24.73542497	      0.61958966	      0.52657616	     -2.59275901	    -11.72022789	      3.62052337	     31.12106783	     89.95437384	      0.00000000	      0.00000000	      6.00712904	     12.99218423	      1.50216776	     33.29844760	     89.95437384	      0.00000000	      0.00000000
      0.01000000	     16.76949609	     -4.50686421	     -7.37233318	     -0.69749080	      0.95611636	      1.42378772	      0.59911787	      2.02359298	     -3.15822149	    -43.13473529	     -0.75284315	      6.04790798	    -13.85310602	     14.22450403	    -21.20362345	      0.27185997	     19.68802314	    -10.27836695	     -0.17939135	      9.95805453	     -2.10886703	     -5.34748549	    -24.62439711	      0.71474811	      0.50399826	     -2.53736216	    -11.59337369	      3.53594614	     30.91130157	     89.95437384	      0.00000000	      0.00000000	      6.43959767	     13.09450038	      1.69952995	     34.05027543	     89.95437384	      0.00000000	      0.00000000
      0.02000000	     16.42275996	     -4.46544753	     -7.51711043	     -0.69334436	      0.95527363	      1.42339310	      1.73347247	      2.02396616	     -3.61034063	    -42.15053731	     -0.73566566	      6.17801602	    -13.33246295	     13.84995093	    -21.00002426	      0.16448090	     19.76191515	    -10.50215392	     -0.18329716	     10.12510123	     -1.98825706	     -5.24359376	    -24.35496357	      0.69980647	      0.47068097	     -2.51971633	    -11.57794045	      3.52400070	     30.92056386	     89.95437384	      0.00000000	      0.00000000	      6.90601061	     13.18169916	      1.79206079	     34.61697814	     89.95437384	      0.00000000	      0.00000000
      0.03000000	     16.72710886	     -5.16681047	     -7.16896814	     -0.68867330	      0.95579119	      1.42341824	      1.37589678	      3.04652899	     -3.73725653	    -40.01306006	     -0.69835964	      6.42887349	    -11.54685775	     13.21666619	    -21.68696481	      0.92243521	     19.43579923	    -10.64626971	     -0.18581246	     10.53495334	     -1.67282323	     -5.23460867	    -24.82785192	      1.42455990	      0.25970469	     -2.37701431	    -11.44780997	      3.33543519	     30.77774228	     89.95437384	      0.00000000	      0.00000000	      7.21964851	     13.29111544	      2.13391853	     35.46084401	     89.95437384	      0.00000000	      0.00000000
      0.04000000	     16.74538758	     -5.44929418	     -7.00317354	     -0.68388745	      0.95554886	      1.42312515	      1.62131608	      3.46885001	     -4.03907733	    -38.40651168	     -0.67032008	      6.58144648	    -10.03402173	     12.47187418	    -22.02614134	      1.19617008	     19.19507153	    -10.73049828	     -0.18728253	     10.84225125	     -1.47862930	     -5.22491119	    -24.89389430	      1.76426451	      0.12363064	     -2.37547951	    -11.40569356	      3.27578217	     30.68915878	     89.95437384	      0.00000000	      0.00000000	      7.58966475	     13.34600687	      2.29691693	     36.07960000	     89.95437384	      0.00000000	      0.00000000
